<svg version="1.1" xmlns="http://www.w3.org/2000/svg" xmlns:xlink="http://www.w3.org/1999/xlink" x="0px" y="0px"
	 width="10px" height="10px" viewBox="0 0 10 10" enable-background="new 0 0 10 10" xml:space="preserve">
		<path fill="#BBBBBB" d="M5,8.137c-1.958,0-3.55-1.63-3.55-3.632c0-2.003,1.592-3.633,3.55-3.633c1.957,0,3.55,1.63,3.55,3.633
			C8.55,6.507,6.957,8.137,5,8.137z"/>
		<path fill="#808080" d="M5,1.372c1.682,0,3.05,1.405,3.05,3.133c0,1.727-1.368,3.132-3.05,3.132S1.95,6.231,1.95,4.504
			C1.95,2.777,3.318,1.372,5,1.372 M5,0.372c-2.237,0-4.05,1.851-4.05,4.133c0,2.283,1.813,4.132,4.05,4.132
			c2.236,0,4.05-1.85,4.05-4.132C9.05,2.222,7.236,0.372,5,0.372L5,0.372z"/>
	<polygon fill="#808080" points="6.701,7.957 5,9.629 3.299,7.957 	"/>
</svg>
