<svg version="1.1" xmlns="http://www.w3.org/2000/svg" xmlns:xlink="http://www.w3.org/1999/xlink" x="0px" y="0px"
	 width="18px" height="20px" viewBox="0 0 18 20" enable-background="new 0 0 18 20" xml:space="preserve">
		<path fill="#BBBBBB" d="M9,16.455c-4.15,0-7.527-3.364-7.527-7.5S4.85,1.455,9,1.455s7.527,3.364,7.527,7.5S13.15,16.455,9,16.455
			z"/>
		<path fill="#808080" d="M9,1.955c3.875,0,7.027,3.14,7.027,7c0,3.859-3.152,7-7.027,7s-7.027-3.141-7.027-7
			C1.973,5.095,5.125,1.955,9,1.955 M9,0.955c-4.433,0-8.027,3.583-8.027,8s3.595,8,8.027,8s8.027-3.583,8.027-8
			S13.433,0.955,9,0.955L9,0.955z"/>
	<polygon fill="#808080" stroke="#808080" stroke-miterlimit="10" points="11.506,16.396 9,19.045 6.494,16.396 	"/>
	<line fill="none" stroke="#808080" stroke-miterlimit="10" x1="3.57" y1="14.242" x2="14.321" y2="3.49"/>
</svg>
