<svg version="1.1" xmlns="http://www.w3.org/2000/svg" xmlns:xlink="http://www.w3.org/1999/xlink" x="0px" y="0px"
	 width="18px" height="20px" viewBox="0 0 18 20" enable-background="new 0 0 18 20" xml:space="preserve">
		<path fill="#BBBBBB" d="M9,16.455c-4.15,0-7.527-3.364-7.527-7.5S4.85,1.455,9,1.455s7.527,3.364,7.527,7.5S13.15,16.455,9,16.455
			z M9.042,5.435c-1.964,0-3.562,1.598-3.562,3.562s1.598,3.562,3.562,3.562c1.965,0,3.562-1.598,3.562-3.562
			S11.007,5.435,9.042,5.435z"/>
		<path fill="#808080" d="M9,1.955c3.875,0,7.027,3.14,7.027,7c0,3.859-3.152,7-7.027,7s-7.027-3.141-7.027-7
			C1.973,5.095,5.125,1.955,9,1.955 M9.042,13.06c2.24,0,4.062-1.822,4.062-4.062s-1.822-4.062-4.062-4.062S4.979,6.757,4.979,8.997
			S6.802,13.06,9.042,13.06 M9,0.955c-4.433,0-8.027,3.583-8.027,8s3.595,8,8.027,8s8.027-3.583,8.027-8S13.433,0.955,9,0.955
			L9,0.955z M9.042,12.06c-1.691,0-3.062-1.371-3.062-3.062s1.371-3.062,3.062-3.062s3.062,1.371,3.062,3.062
			S10.733,12.06,9.042,12.06L9.042,12.06z"/>
	<polygon fill="#808080" stroke="#808080" stroke-miterlimit="10" points="11.506,16.396 9,19.045 6.494,16.396 	"/>
	<line fill="none" stroke="#808080" stroke-miterlimit="10" x1="11.544" y1="6.574" x2="14.459" y2="3.658"/>
	<line fill="none" stroke="#808080" stroke-miterlimit="10" x1="3.602" y1="14.545" x2="6.862" y2="11.284"/>
</svg>
