<?xml version="1.0" encoding="utf-8"?>
<svg version="1.1" xmlns="http://www.w3.org/2000/svg" xmlns:xlink="http://www.w3.org/1999/xlink" x="0px" y="0px"
	 width="24px" height="24px" viewBox="-199.5 400.5 24 24" enable-background="new -199.5 400.5 24 24" xml:space="preserve">
<g>
	<circle fill="#C62828" cx="-187.5" cy="412.5" r="1.482"/>
	<path fill="#C62828" d="M-187.5,409.535c0.83,0,1.482-0.653,1.482-1.483v-5.931c0-0.83-0.652-1.482-1.482-1.482
		s-1.482,0.652-1.482,1.482v5.931C-188.982,408.882-188.33,409.535-187.5,409.535z"/>
	<path fill="#C62828" d="M-187.5,424.361c0.83,0,1.482-0.652,1.482-1.482v-5.931c0-0.83-0.652-1.483-1.482-1.483
		s-1.482,0.653-1.482,1.483v5.931C-188.982,423.709-188.33,424.361-187.5,424.361z"/>
	<path fill="#C62828" d="M-183.052,413.982h5.931c0.83,0,1.482-0.652,1.482-1.482s-0.652-1.482-1.482-1.482h-5.931
		c-0.831,0-1.483,0.652-1.483,1.482S-183.882,413.982-183.052,413.982z"/>
	<path fill="#C62828" d="M-197.878,413.982h5.93c0.831,0,1.483-0.652,1.483-1.482s-0.652-1.482-1.483-1.482h-5.93
		c-0.831,0-1.483,0.652-1.483,1.482S-198.709,413.982-197.878,413.982z"/>
</g>
</svg>
